<?xml version="1.0" encoding="UTF-8" standalone="no"?>
<svg
   xmlns:dc="http://purl.org/dc/elements/1.1/"
   xmlns:cc="http://creativecommons.org/ns#"
   xmlns:rdf="http://www.w3.org/1999/02/22-rdf-syntax-ns#"
   xmlns:svg="http://www.w3.org/2000/svg"
   xmlns="http://www.w3.org/2000/svg"
   xmlns:sodipodi="http://sodipodi.sourceforge.net/DTD/sodipodi-0.dtd"
   xmlns:inkscape="http://www.inkscape.org/namespaces/inkscape"
   width="48"
   viewBox="0 0 48 48"
   height="48"
   id="svg2"
   version="1.1"
   inkscape:version="0.48.4 r9939"
   sodipodi:docname="application-x-rpm.svg">
  <metadata
     id="metadata24">
    <rdf:RDF>
      <cc:Work
         rdf:about="">
        <dc:format>image/svg+xml</dc:format>
        <dc:type
           rdf:resource="http://purl.org/dc/dcmitype/StillImage" />
      </cc:Work>
    </rdf:RDF>
  </metadata>
  <defs
     id="defs22" />
  <sodipodi:namedview
     pagecolor="#ffffff"
     bordercolor="#666666"
     borderopacity="1"
     objecttolerance="10"
     gridtolerance="10"
     guidetolerance="10"
     inkscape:pageopacity="0"
     inkscape:pageshadow="2"
     inkscape:window-width="640"
     inkscape:window-height="480"
     id="namedview20"
     showgrid="false"
     showguides="true"
     inkscape:guide-bbox="true"
     inkscape:zoom="4.9166667"
     inkscape:cx="24"
     inkscape:cy="24"
     inkscape:window-x="0"
     inkscape:window-y="24"
     inkscape:window-maximized="0"
     inkscape:current-layer="svg2">
    <sodipodi:guide
       orientation="0,1"
       position="24.40678,46.372881"
       id="guide3001" />
    <sodipodi:guide
       orientation="0,1"
       position="62.440678,1.6271186"
       id="guide3003" />
  </sodipodi:namedview>
  <path
     d="M 8.0571,1.7288136 C 7.0286,1.7288136 6,3.0072988 6,4.2856597 V 43.988802 c 0,1.207427 1.0286,2.485874 2,2.485874 h 32 c 0.97143,0 2,-1.278485 2,-2.485874 V 4.2148122 C 42,3.0074231 40.971,1.7289379 40,1.7289379 z"
     id="path4"
     inkscape:connector-curvature="0"
     style="fill:#c19553" />
  <g
     id="g6"
     transform="matrix(1,0,0,1.2429371,0,-5.7288095)"
     style="fill:#ffffff">
    <path
       d="M 8.0571,6 C 7.0286,6 6,7.0286 6,8.0571 V 18 H 42 V 8 C 42,7.0286 40.971,6 40,6 z"
       id="path8"
       inkscape:connector-curvature="0"
       style="fill-opacity:0.19599998" />
    <path
       d="m 21,10 v 16 h 6 V 10 z"
       id="path10"
       inkscape:connector-curvature="0"
       style="fill-opacity:0.39199997" />
  </g>
  <g
     transform="matrix(1.0487,0,0,0.95355,0,6)"
     id="g12"
     style="fill:#ffffff">
    <path
       d="m 15.494,31.461 c 0.47354,9e-6 0.9024,0.05362 1.2866,0.16082 0.38419,0.10722 0.71477,0.27252 0.99175,0.49588 0.27697,0.22337 0.48694,0.50928 0.6299,0.85773 0.15188,0.33952 0.22783,0.74158 0.22784,1.2062 -6e-6,0.48248 -0.09829,0.92028 -0.29484,1.3134 -0.19657,0.39313 -0.52268,0.69244 -0.97835,0.89794 0.15188,0.2323 0.31271,0.49141 0.48247,0.77732 0.16975,0.27698 0.33504,0.57182 0.49588,0.88453 0.16082,0.30378 0.31271,0.61203 0.45567,0.92474 0.15188,0.30378 0.28144,0.59416 0.38866,0.87113 h -1.7289 c -0.2055,-0.53608 -0.44674,-1.0498 -0.72371,-1.5412 -0.26804,-0.50034 -0.55842,-1.0051 -0.87113,-1.5144 h -0.85773 v 3.0557 h -1.6484 v -8.1752 c 0.16082,-0.03573 0.33505,-0.067 0.52268,-0.09381 0.19656,-0.03573 0.39312,-0.05807 0.58969,-0.06701 0.19656,-0.01786 0.38419,-0.03126 0.56288,-0.04021 0.17869,-0.0089 0.33505,-0.01339 0.46907,-0.0134 m 1.4608,2.7072 c -5e-6,-0.43779 -0.13402,-0.75944 -0.40206,-0.96495 -0.26804,-0.20549 -0.62096,-0.30824 -1.0588,-0.30825 -0.06255,7e-6 -0.13849,0.0045 -0.22783,0.0134 -0.08935,7e-6 -0.1787,0.0089 -0.26804,0.0268 v 2.4928 h 0.36186 c 0.56288,5e-6 0.96941,-0.10721 1.2196,-0.32165 0.25017,-0.22336 0.37525,-0.53608 0.37526,-0.93814"
       id="path14"
       inkscape:connector-curvature="0" />
    <path
       d="m 22.329,31.461 c 1.0543,9e-6 1.8718,0.21891 2.4526,0.6567 0.58075,0.42887 0.87112,1.1347 0.87113,2.1175 -7e-6,0.99176 -0.29485,1.711 -0.88453,2.1577 -0.58076,0.4378 -1.4072,0.6567 -2.4794,0.6567 h -0.58969 v 2.801 h -1.6484 V 31.662 c 0.16082,-0.03573 0.33952,-0.067 0.53608,-0.09381 0.2055,-0.0268 0.41099,-0.04466 0.61649,-0.05361 0.2055,-0.01786 0.40653,-0.03126 0.60309,-0.04021 0.19656,-0.0089 0.37079,-0.01339 0.52268,-0.0134 m 0.18763,1.434 c -0.09828,7e-6 -0.23677,0.0045 -0.41546,0.0134 -0.16976,7e-6 -0.30378,0.0089 -0.40206,0.0268 v 2.6804 h 0.6701 c 0.52714,4e-6 0.92474,-0.10274 1.1928,-0.30825 0.26804,-0.21443 0.40206,-0.57628 0.40206,-1.0856 -5e-6,-0.48247 -0.13402,-0.82198 -0.40206,-1.0186 -0.25911,-0.20549 -0.60756,-0.30824 -1.0454,-0.30825"
       id="path16"
       inkscape:connector-curvature="0" />
    <path
       d="m 28.186,31.555 c 0.06254,0.18764 0.13848,0.42887 0.22784,0.72371 0.09828,0.29485 0.20103,0.61203 0.30825,0.95154 0.10721,0.33952 0.21443,0.68351 0.32165,1.032 0.10721,0.34846 0.20996,0.67011 0.30825,0.96495 0.10721,-0.33058 0.2189,-0.6701 0.33505,-1.0186 0.11615,-0.35738 0.22783,-0.6969 0.33505,-1.0186 0.10721,-0.33058 0.20549,-0.63882 0.29484,-0.92474 0.08934,-0.2859 0.16975,-0.52267 0.24124,-0.71031 h 1.367 c 0.06254,0.72372 0.12061,1.4296 0.17423,2.1175 0.06254,0.68798 0.11168,1.3715 0.14742,2.0505 0.04467,0.6701 0.08041,1.3491 0.10722,2.0371 0.0268,0.67904 0.04913,1.3759 0.06701,2.0907 h -1.5144 l 0.08041,-6.4464 -1.0186,3.5113 h -1.2062 l -0.97835,-3.5113 0.06701,6.4464 h -1.5144 c 0.0268,-0.67904 0.05361,-1.3849 0.08041,-2.1175 0.03574,-0.73264 0.07148,-1.4608 0.10722,-2.1845 0.03574,-0.7237 0.07594,-1.4251 0.12062,-2.1041 0.05361,-0.67903 0.11168,-1.3089 0.17423,-1.8897 h 1.367"
       id="path18"
       inkscape:connector-curvature="0" />
  </g>
</svg>
