<?xml version="1.0" encoding="UTF-8" standalone="no"?>
<svg
   xmlns:dc="http://purl.org/dc/elements/1.1/"
   xmlns:cc="http://creativecommons.org/ns#"
   xmlns:rdf="http://www.w3.org/1999/02/22-rdf-syntax-ns#"
   xmlns:svg="http://www.w3.org/2000/svg"
   xmlns="http://www.w3.org/2000/svg"
   xmlns:sodipodi="http://sodipodi.sourceforge.net/DTD/sodipodi-0.dtd"
   xmlns:inkscape="http://www.inkscape.org/namespaces/inkscape"
   width="48"
   viewBox="0 0 48 48"
   height="48"
   id="svg2"
   version="1.1"
   inkscape:version="0.48.4 r9939"
   sodipodi:docname="application-vnd.ms-publisher.svg">
  <metadata
     id="metadata44">
    <rdf:RDF>
      <cc:Work
         rdf:about="">
        <dc:format>image/svg+xml</dc:format>
        <dc:type
           rdf:resource="http://purl.org/dc/dcmitype/StillImage" />
        <dc:title />
      </cc:Work>
    </rdf:RDF>
  </metadata>
  <defs
     id="defs42" />
  <sodipodi:namedview
     pagecolor="#ffffff"
     bordercolor="#666666"
     borderopacity="1"
     objecttolerance="10"
     gridtolerance="10"
     guidetolerance="10"
     inkscape:pageopacity="0"
     inkscape:pageshadow="2"
     inkscape:window-width="721"
     inkscape:window-height="480"
     id="namedview40"
     showgrid="false"
     inkscape:zoom="4.9166667"
     inkscape:cx="34.322557"
     inkscape:cy="23.767526"
     inkscape:window-x="303"
     inkscape:window-y="148"
     inkscape:window-maximized="0"
     inkscape:current-layer="svg2" />
  <path
     d="m8 1c-1.0286 0-2 0.9714-2 2v42c0 0.97143 1.0286 2 2 2h32c0.97143 0 2-1.0286 2-2v-31l-13-13z"
     fill="#3468ce"
     id="path4"
     style="fill:#008000" />
  <path
     d="m29 12 0.062 0.062 0.157-0.062h-0.219zm2 2 11 11v-11h-11z"
     fill-opacity=".196"
     id="path6" />
  <path
     fill="#fff"
     d="m29 1 13 13h-11c-0.97143 0-2-1.0286-2-2v-11z"
     fill-opacity=".392"
     id="path8" />
  <path
     d="m6 35v10c0 0.97143 1.0286 2 2 2h32c0.97143 0 2-1.0286 2-2v-10z"
     fill-opacity=".196"
     id="path30" />
  <text
     xml:space="preserve"
     style="font-size:10px;font-style:normal;font-weight:bold;line-height:125%;letter-spacing:0px;word-spacing:0px;fill:#ffffff;fill-opacity:1;stroke:none;font-family:Sans;-inkscape-font-specification:Sans Bold"
     x="12.271185"
     y="44.508469"
     id="text2991"
     sodipodi:linespacing="125%"><tspan
       sodipodi:role="line"
       id="tspan2993"
       x="12.271185"
       y="44.508469">PUB</tspan></text>
  <path
     style="fill:#ffffff"
     inkscape:connector-curvature="0"
     d="m 24.79063,14.135593 h 2.2222 c 3.3333,0 3.3333,3.4285 3.3333,3.4285 v 3.3929 c 0,1.1429 -2.2222,3.4642 -2.2222,3.4642 v 1.1429 l 3.334,2.286 v 2.286 h -6.1111 -6.111103 v -2.2857 l 4.444403,-2.2857 v -1.1429 c 0,0 -2.229603,-2.3214 -2.222203,-3.4642 v -3.3929 c 0,0 0,-3.429 3.333003,-3.429 z m -7.777803,2.2857 h 2.2222 v 4.5357 c 0.001,1.142 2.223,3.464 2.223,3.464 l -4.4444,2.2857 v 2.2857 l -5.556,-0.035 v -1.1429 l 4.4444,-2.2501 v -1.1428 c 0,0 -2.2295,-2.3215 -2.2222,-3.4642 v -1.1072 c 0,-3.4286 3.3333,-3.4286 3.3333,-3.4286 z"
     id="path3046" />
  <rect
     style="fill:#008000;fill-opacity:1;stroke:none"
     id="rect3847"
     width="8.9491415"
     height="15.457624"
     x="10.881355"
     y="15.627117" />
  <g
     id="g3025"
     transform="translate(50.440678,-1.2542373)">
    <g
       id="g3003"
       style="fill:#ffffff">
      <g
         id="g3005"
         transform="matrix(3.2707,0,0,3.189,1.3846,3.4)">
        <path
           id="path3007"
           d="m -12.984793,3.9511 h 2.1402 V 5.519 h -2.1402 z"
           inkscape:connector-curvature="0" />
        <path
           id="path3009"
           d="m -12.984793,6.4598 h 2.1402 v 1.5679 h -2.1402 z"
           inkscape:connector-curvature="0" />
        <path
           id="path3011"
           d="m -12.984793,8.9684 h 7.3378002 v 0.62716 h -7.3378002 z"
           inkscape:connector-curvature="0" />
      </g>
      <g
         id="g3013"
         transform="matrix(3.2707,0,0,3.189,2.3077,3.4)" />
    </g>
  </g>
</svg>
