<?xml version="1.0" encoding="UTF-8" standalone="no"?>
<svg
   xmlns:dc="http://purl.org/dc/elements/1.1/"
   xmlns:cc="http://creativecommons.org/ns#"
   xmlns:rdf="http://www.w3.org/1999/02/22-rdf-syntax-ns#"
   xmlns:svg="http://www.w3.org/2000/svg"
   xmlns="http://www.w3.org/2000/svg"
   xmlns:sodipodi="http://sodipodi.sourceforge.net/DTD/sodipodi-0.dtd"
   xmlns:inkscape="http://www.inkscape.org/namespaces/inkscape"
   width="48"
   viewBox="0 0 48 48"
   height="48"
   id="svg2"
   version="1.1"
   inkscape:version="0.48.4 r9939"
   sodipodi:docname="text-x-source.svg">
  <metadata
     id="metadata34">
    <rdf:RDF>
      <cc:Work
         rdf:about="">
        <dc:format>image/svg+xml</dc:format>
        <dc:type
           rdf:resource="http://purl.org/dc/dcmitype/StillImage" />
        <dc:title></dc:title>
      </cc:Work>
    </rdf:RDF>
  </metadata>
  <defs
     id="defs32" />
  <sodipodi:namedview
     pagecolor="#ffffff"
     bordercolor="#666666"
     borderopacity="1"
     objecttolerance="10"
     gridtolerance="10"
     guidetolerance="10"
     inkscape:pageopacity="0"
     inkscape:pageshadow="2"
     inkscape:window-width="640"
     inkscape:window-height="480"
     id="namedview30"
     showgrid="false"
     inkscape:zoom="4.9166667"
     inkscape:cx="24"
     inkscape:cy="24"
     inkscape:window-x="10"
     inkscape:window-y="34"
     inkscape:window-maximized="0"
     inkscape:current-layer="svg2" />
  <path
     d="m8 1c-1.0286 0-2 0.9714-2 2v42c0 0.97143 1.0286 2 2 2h32c0.97143 0 2-1.0286 2-2v-31l-13-13z"
     fill="#dcdcdc"
     id="path4" />
  <path
     d="m29 12 0.062 0.062 0.157-0.062h-0.219zm2 2 11 11v-11h-11z"
     fill-opacity=".196"
     id="path6" />
  <path
     fill="#fff"
     d="m29 1 13 13h-11c-0.97143 0-2-1.0286-2-2v-11z"
     fill-opacity=".392"
     id="path8" />
  <g
     fill="#888"
     id="g10"
     style="fill:#37c8ab">
    <path
       d="m14 19v1h20v-1z"
       id="path12"
       style="fill:#37c8ab" />
    <path
       d="m14 21v1h20v-1z"
       id="path14"
       style="fill:#37c8ab" />
    <path
       d="m14 23v1h20v-1z"
       id="path16"
       style="fill:#37c8ab" />
    <path
       d="m14 25v1h20v-1z"
       id="path18"
       style="fill:#37c8ab" />
    <path
       d="m14 27v1h20v-1z"
       id="path20"
       style="fill:#37c8ab" />
    <path
       d="m14 29v1h20v-1z"
       id="path22"
       style="fill:#37c8ab" />
    <path
       d="m14 31v1h20v-1z"
       id="path24"
       style="fill:#37c8ab" />
    <path
       d="m14 33v1h20v-1z"
       id="path26"
       style="fill:#37c8ab" />
    <path
       d="m14 35v1h20v-1z"
       id="path28"
       style="fill:#37c8ab" />
  </g>
</svg>
