<?xml version="1.0" encoding="UTF-8" standalone="no"?>
<svg
   xmlns:dc="http://purl.org/dc/elements/1.1/"
   xmlns:cc="http://creativecommons.org/ns#"
   xmlns:rdf="http://www.w3.org/1999/02/22-rdf-syntax-ns#"
   xmlns:svg="http://www.w3.org/2000/svg"
   xmlns="http://www.w3.org/2000/svg"
   xmlns:sodipodi="http://sodipodi.sourceforge.net/DTD/sodipodi-0.dtd"
   xmlns:inkscape="http://www.inkscape.org/namespaces/inkscape"
   width="48"
   viewBox="0 0 48 48"
   height="48"
   id="svg2"
   version="1.1"
   inkscape:version="0.48.4 r9939"
   sodipodi:docname="application-x-sharedlib.svg">
  <metadata
     id="metadata14">
    <rdf:RDF>
      <cc:Work
         rdf:about="">
        <dc:format>image/svg+xml</dc:format>
        <dc:type
           rdf:resource="http://purl.org/dc/dcmitype/StillImage" />
        <dc:title></dc:title>
      </cc:Work>
    </rdf:RDF>
  </metadata>
  <defs
     id="defs12" />
  <sodipodi:namedview
     pagecolor="#ffffff"
     bordercolor="#666666"
     borderopacity="1"
     objecttolerance="10"
     gridtolerance="10"
     guidetolerance="10"
     inkscape:pageopacity="0"
     inkscape:pageshadow="2"
     inkscape:window-width="721"
     inkscape:window-height="480"
     id="namedview10"
     showgrid="false"
     inkscape:zoom="4.9166667"
     inkscape:cx="40.576271"
     inkscape:cy="24"
     inkscape:window-x="10"
     inkscape:window-y="34"
     inkscape:window-maximized="0"
     inkscape:current-layer="svg2" />
  <path
     d="m8 1c-1.0286 0-2 0.9714-2 2v42c0 0.97143 1.0286 2 2 2h32c0.97143 0 2-1.0286 2-2v-31l-13-13z"
     fill="#dcdcdc"
     id="path4"
     style="fill:#808080" />
  <path
     d="m29 12 0.062 0.062 0.157-0.062h-0.219zm2 2 11 11v-11h-11z"
     fill-opacity=".196"
     id="path6" />
  <path
     fill="#fff"
     d="m29 1 13 13h-11c-0.97143 0-2-1.0286-2-2v-11z"
     fill-opacity=".392"
     id="path8" />
  <rect
     style="fill:#fafa5c;fill-opacity:1;stroke:none"
     id="rect2993"
     width="20.535229"
     height="20.554693"
     x="-47.848877"
     y="-7.6040821"
     transform="matrix(-0.69430785,-0.71967813,-0.68148102,0.73183579,0,0)" />
  <path
     style="fill:none;stroke:#808080;stroke-width:1.30000000000000004;stroke-linecap:butt;stroke-linejoin:miter;stroke-opacity:1;stroke-miterlimit:4;stroke-dasharray:none"
     d="m 25.026277,20.893626 c -7.329202,6.152808 -1.562242,8.476829 -1.562242,8.476829 0,0 3.180645,1.321964 3.653495,3.988182 0.472853,2.666215 -4.290929,6.244208 -4.290929,6.244208"
     id="path3003"
     inkscape:connector-curvature="0"
     sodipodi:nodetypes="ccsc" />
  <path
     sodipodi:type="star"
     style="fill:#808080;fill-opacity:1;stroke:none"
     id="path3005"
     sodipodi:sides="3"
     sodipodi:cx="23.79661"
     sodipodi:cy="22.372881"
     sodipodi:r1="4.0371728"
     sodipodi:r2="2.0343542"
     sodipodi:arg1="0.85670563"
     sodipodi:arg2="1.6239974"
     inkscape:flatsided="false"
     inkscape:rounded="0"
     inkscape:randomized="0"
     d="m 26.440678,25.423728 -2.752247,-1.019371 -3.855966,-1.26707 2.258925,-1.87383 3.025297,-2.70583 0.493322,2.893202 z"
     inkscape:transform-center-x="-0.23143806"
     inkscape:transform-center-y="-0.83025907"
     transform="matrix(0.8408387,-0.24817486,0.23781692,0.87746082,-1.6157818,7.0328835)" />
</svg>
