<?xml version="1.0" encoding="UTF-8" standalone="no"?>
<svg
   xmlns:dc="http://purl.org/dc/elements/1.1/"
   xmlns:cc="http://creativecommons.org/ns#"
   xmlns:rdf="http://www.w3.org/1999/02/22-rdf-syntax-ns#"
   xmlns:svg="http://www.w3.org/2000/svg"
   xmlns="http://www.w3.org/2000/svg"
   xmlns:sodipodi="http://sodipodi.sourceforge.net/DTD/sodipodi-0.dtd"
   xmlns:inkscape="http://www.inkscape.org/namespaces/inkscape"
   width="48"
   viewBox="0 0 48 48"
   height="48"
   id="svg2"
   version="1.1"
   inkscape:version="0.48.4 r9939"
   sodipodi:docname="application-x-ms-dos-executable.svg">
  <metadata
     id="metadata22">
    <rdf:RDF>
      <cc:Work
         rdf:about="">
        <dc:format>image/svg+xml</dc:format>
        <dc:type
           rdf:resource="http://purl.org/dc/dcmitype/StillImage" />
      </cc:Work>
    </rdf:RDF>
  </metadata>
  <defs
     id="defs20" />
  <sodipodi:namedview
     pagecolor="#ffffff"
     bordercolor="#666666"
     borderopacity="1"
     objecttolerance="10"
     gridtolerance="10"
     guidetolerance="10"
     inkscape:pageopacity="0"
     inkscape:pageshadow="2"
     inkscape:window-width="721"
     inkscape:window-height="480"
     id="namedview18"
     showgrid="false"
     showguides="true"
     inkscape:guide-bbox="true"
     inkscape:zoom="4.9166667"
     inkscape:cx="46.474576"
     inkscape:cy="26.511702"
     inkscape:window-x="10"
     inkscape:window-y="34"
     inkscape:window-maximized="0"
     inkscape:current-layer="svg2" />
  <path
     d="M 8.0571,1.7288136 C 7.0286,1.7288136 6,3.0072987 6,4.2856596 V 43.988802 c 0,1.207427 1.0286,2.485874 2,2.485874 h 32 c 0.97143,0 2,-1.278485 2,-2.485874 V 4.2148122 C 42,3.0074231 40.971,1.7289378 40,1.7289378 z"
     id="path4"
     inkscape:connector-curvature="0"
     style="fill:#666666" />
  <path
     d="m 8.5,1.7288136 c -0.6667,0 -1.2652,0.4073105 -1.7188,0.9709824 C 6.3277,3.2635923 6,4.0074903 6,4.8361565 V 43.444271 c 0,0.806666 0.3063,1.546215 0.75,2.098078 0.4437,0.551864 1.0388,0.932203 1.6875,0.932203 h 31.125 c 0.649,0 1.244,-0.380339 1.688,-0.932203 0.444,-0.551863 0.75,-1.291412 0.75,-2.098078 V 4.7590944 c 0,-0.8069148 -0.306,-1.5465867 -0.75,-2.0980779 -0.444,-0.5514913 -1.039,-0.9322029 -1.688,-0.9322029 H 8.5005 z m 0,1.2429371 h 31.062 c 0.29575,0 0.6763,0.2191299 0.96875,0.5826268 0.293,0.3634349 0.469,0.8363724 0.469,1.2040332 V 43.44483 c 0,0.367599 -0.1763,0.840599 -0.46875,1.204096 -0.292,0.364181 -0.673,0.582937 -0.969,0.582937 H 8.438 c -0.2963,0 -0.6768,-0.218756 -0.9692,-0.582937 C 7.1763,44.285988 7,43.812429 7,43.444519 V 4.8364051 C 7,4.4221342 7.1723,3.9230948 7.4688,3.5546883 7.7652,3.1861573 8.1667,2.9719993 8.5,2.9719993 z"
     id="path6"
     inkscape:connector-curvature="0"
     style="fill:#4d4d4d;stroke:none;stroke-opacity:1" />
  <g
     transform="matrix(.66667 -.66667 .66667 .66667 -6.6667 25.333)"
     fill="#888"
     id="g8"
     style="fill:#f2f2f2">
    <path
       d="m15 13h8v8h-8z"
       id="path10"
       style="fill:#f2f2f2" />
    <path
       d="m25 13h8v8h-8z"
       id="path12"
       style="fill:#f2f2f2" />
    <path
       d="m25 23h8v8h-8z"
       id="path14"
       style="fill:#f2f2f2" />
    <path
       d="m15 23h8v8h-8z"
       id="path16"
       style="fill:#f2f2f2" />
  </g>
</svg>
