<?xml version="1.0" encoding="UTF-8" standalone="no"?>
<svg
   xmlns:dc="http://purl.org/dc/elements/1.1/"
   xmlns:cc="http://creativecommons.org/ns#"
   xmlns:rdf="http://www.w3.org/1999/02/22-rdf-syntax-ns#"
   xmlns:svg="http://www.w3.org/2000/svg"
   xmlns="http://www.w3.org/2000/svg"
   xmlns:sodipodi="http://sodipodi.sourceforge.net/DTD/sodipodi-0.dtd"
   xmlns:inkscape="http://www.inkscape.org/namespaces/inkscape"
   width="48"
   viewBox="0 0 48 48"
   height="48"
   id="svg2"
   version="1.1"
   inkscape:version="0.48.4 r9939"
   sodipodi:docname="application-x-java.svg">
  <metadata
     id="metadata32">
    <rdf:RDF>
      <cc:Work
         rdf:about="">
        <dc:format>image/svg+xml</dc:format>
        <dc:type
           rdf:resource="http://purl.org/dc/dcmitype/StillImage" />
        <dc:title />
      </cc:Work>
    </rdf:RDF>
  </metadata>
  <defs
     id="defs30" />
  <sodipodi:namedview
     pagecolor="#ffffff"
     bordercolor="#666666"
     borderopacity="1"
     objecttolerance="10"
     gridtolerance="10"
     guidetolerance="10"
     inkscape:pageopacity="0"
     inkscape:pageshadow="2"
     inkscape:window-width="723"
     inkscape:window-height="480"
     id="namedview28"
     showgrid="false"
     inkscape:zoom="4.9166667"
     inkscape:cx="16.067797"
     inkscape:cy="24"
     inkscape:window-x="10"
     inkscape:window-y="34"
     inkscape:window-maximized="0"
     inkscape:current-layer="svg2" />
  <path
     d="m8 1c-1.0286 0-2 0.9714-2 2v42c0 0.97143 1.0286 2 2 2h32c0.97143 0 2-1.0286 2-2v-31l-13-13z"
     fill="#e76f00"
     id="path4"
     style="fill:#bf5c00;fill-opacity:1" />
  <path
     d="m29 12 0.062 0.062 0.157-0.062h-0.219zm2 2 11 11v-11h-11z"
     fill-opacity=".196"
     id="path6" />
  <path
     fill="#fff"
     d="m29 1 13 13h-11c-0.97143 0-2-1.0286-2-2v-11z"
     fill-opacity=".392"
     id="path8" />
  <g
     transform="matrix(0.10348948,0,0,0.09813565,-42.538825,-9.2857995)"
     id="g10"
     style="fill:#ffffff;fill-rule:evenodd">
    <path
       d="m 546.05,274.51 c 0,0 -7.6429,4.4446 5.4392,5.9486 15.849,1.808 23.949,1.5487 41.414,-1.7568 0,0 4.5918,2.8791 11.005,5.3728 -39.153,16.78 -88.61,-0.97193 -57.858,-9.5646"
       id="path12"
       inkscape:connector-curvature="0" />
    <path
       d="m 541.27,252.61 c 0,0 -8.5723,6.3453 4.5196,7.6994 16.93,1.7466 30.3,1.8894 53.435,-2.5654 0,0 3.1999,3.2441 8.2316,5.0182 -47.338,13.842 -100.06,1.0916 -66.186,-10.152"
       id="path14"
       inkscape:connector-curvature="0" />
    <path
       d="m 581.6,215.47 c 9.6472,11.107 -2.5347,21.102 -2.5347,21.102 0,0 24.496,-12.645 13.246,-28.48 -10.507,-14.767 -18.564,-22.104 25.055,-47.402 0,0 -68.469,17.1 -35.767,54.781"
       id="path16"
       inkscape:connector-curvature="0" />
    <path
       d="m 633.38,290.7 c 0,0 5.6559,4.6602 -6.229,8.2655 -22.599,6.8461 -94.061,8.9134 -113.91,0.27277 -7.1362,-3.1045 6.2462,-7.4127 10.456,-8.3167 4.3902,-0.95199 6.899,-0.77464 6.899,-0.77464 -7.9362,-5.5906 -51.296,10.978 -22.025,15.722 79.828,12.946 145.52,-5.8294 124.81,-15.169"
       id="path18"
       inkscape:connector-curvature="0" />
    <path
       d="m 549.73,229.92 c 0,0 -36.35,8.6336 -12.872,11.769 9.913,1.3272 29.674,1.0269 48.081,-0.51535 15.043,-1.269 30.149,-3.967 30.149,-3.967 0,0 -5.3044,2.2716 -9.1421,4.892 -36.913,9.708 -108.22,5.1917 -87.693,-4.7384 17.361,-8.3922 31.477,-7.4402 31.477,-7.4402"
       id="path20"
       inkscape:connector-curvature="0" />
    <path
       d="m 614.93,266.37 c 37.524,-19.498 20.174,-38.236 8.0645,-35.712 -2.9681,0.61777 -4.2915,1.1531 -4.2915,1.1531 0,0 1.1019,-1.7261 3.2064,-2.4732 23.957,-8.4223 42.381,24.841 -7.7335,38.015 0,5.4e-4 0.58057,-0.51858 0.75416,-0.98271"
       id="path22"
       inkscape:connector-curvature="0" />
    <path
       d="m 592.31,119.84 c 0,0 20.781,20.788 -19.71,52.754 -32.47,25.642 -7.4041,40.263 -0.0135,56.967 -18.953,-17.1 -32.862,-32.154 -23.531,-46.164 13.696,-20.566 51.639,-30.537 43.254,-63.557"
       id="path24"
       inkscape:connector-curvature="0" />
    <path
       d="m 553.41,319.21 c 36.018,2.3056 91.328,-1.2792 92.637,-18.322 0,0 -2.518,6.4607 -29.767,11.592 -30.742,5.7852 -68.658,5.1098 -91.146,1.4021 5.4e-4,-5.4e-4 4.6037,3.8101 28.276,5.3281"
       id="path26"
       inkscape:connector-curvature="0" />
  </g>
  <path
     style="fill:#f2f2f2"
     id="path6-2-3"
     d="m 23.724826,23.615925 c -1.698647,0.542932 -0.208755,3.071103 -2.639495,4.309495 -2.778053,1.415255 -4.159071,-2.156274 -5.827631,0.393442 -1.668476,2.549661 2.302714,2.154238 2.190849,5.155173 -0.111934,3.000935 -4.041783,2.363561 -2.567121,5.011613 1.474663,2.648054 3.112291,-0.827279 5.778395,0.758358 2.666104,1.585678 0.117302,4.519748 3.260511,4.618139 3.143223,0.09837 0.809526,-2.981527 3.587544,-4.396869 2.778055,-1.415254 4.159072,2.156274 5.827634,-0.39344 1.668475,-2.549663 -2.302714,-2.154238 -2.19085,-5.155175 0.111934,-3.000934 4.041782,-2.363561 2.56712,-5.011613 -1.474661,-2.648053 -3.11229,0.827281 -5.778395,-0.758356 -2.666103,-1.58568 -0.117289,-4.51975 -3.260509,-4.618139 -0.392899,-0.01223 -0.705358,0.0098 -0.948052,0.08738 z m 0.03216,7.640515 c 1.402036,-0.286297 2.780173,0.573517 3.078224,1.920425 0.298016,1.34695 -0.596976,2.670934 -1.998985,2.957205 -1.402034,0.286297 -2.780172,-0.573516 -3.078223,-1.920424 -0.298008,-1.34695 0.596976,-2.670935 1.998984,-2.957206 z"
     inkscape:connector-curvature="0" />
</svg>
