<?xml version="1.0" encoding="UTF-8" standalone="no"?>
<!-- Generator: Adobe Illustrator 14.0.0, SVG Export Plug-In . SVG Version: 6.00 Build 43363)  -->

<svg
   xmlns:dc="http://purl.org/dc/elements/1.1/"
   xmlns:cc="http://creativecommons.org/ns#"
   xmlns:rdf="http://www.w3.org/1999/02/22-rdf-syntax-ns#"
   xmlns:svg="http://www.w3.org/2000/svg"
   xmlns="http://www.w3.org/2000/svg"
   xmlns:sodipodi="http://sodipodi.sourceforge.net/DTD/sodipodi-0.dtd"
   xmlns:inkscape="http://www.inkscape.org/namespaces/inkscape"
   id="Layer_1"
   enable-background="new 0 0 22 22"
   xml:space="preserve"
   height="22px"
   viewBox="0 0 22 22"
   width="22px"
   version="1.1"
   y="0px"
   x="0px"
   inkscape:version="0.48.3.1 r9886"
   sodipodi:docname="system-devices-panel.svg"><defs
   id="defs12" /><sodipodi:namedview
   pagecolor="#ffffff"
   bordercolor="#666666"
   borderopacity="1"
   objecttolerance="10"
   gridtolerance="10"
   guidetolerance="10"
   inkscape:pageopacity="0"
   inkscape:pageshadow="2"
   inkscape:window-width="1024"
   inkscape:window-height="716"
   id="namedview10"
   showgrid="false"
   inkscape:zoom="31.588235"
   inkscape:cx="11"
   inkscape:cy="10.5"
   inkscape:window-x="0"
   inkscape:window-y="24"
   inkscape:window-maximized="1"
   inkscape:current-layer="Layer_1" /><metadata
   id="metadata13"><rdf:RDF><cc:Work
       rdf:about=""><dc:format>image/svg+xml</dc:format><dc:type
         rdf:resource="http://purl.org/dc/dcmitype/StillImage" /></cc:Work></rdf:RDF></metadata>


<g
   transform="matrix(0.06224514,0,0,0.06224514,54.735766,54.47518)"
   id="g3337"
   inkscape:export-filename="/home/tng-arsel/Images/mes productions/mathsInfos-projet/ins_logo.png"
   inkscape:export-xdpi="90"
   inkscape:export-ydpi="90"><path
     sodipodi:type="arc"
     style="fill:#00aa44;fill-opacity:1;fill-rule:nonzero;stroke:none"
     id="path3275"
     sodipodi:cx="569.7207"
     sodipodi:cy="-390.00394"
     sodipodi:rx="121.35515"
     sodipodi:ry="113.94415"
     d="m 448.67716,-398.16417 c 4.7999,-62.76803 62.88402,-109.99811 129.73452,-105.49134 60.43548,4.0743 108.4099,49.37946 112.40066,106.14677"
     sodipodi:start="3.2132701"
     sodipodi:end="6.2172737"
     sodipodi:open="true"
     transform="matrix(0.85066728,0.31907489,0.10020158,-0.26714167,-1220.1002,-956.73313)" /><path
     transform="matrix(0.86987733,0.32628035,-0.09679603,0.25806232,-1307.9236,-749.07613)"
     sodipodi:open="true"
     sodipodi:end="6.2172737"
     sodipodi:start="3.2132701"
     d="m 448.67716,-398.16417 c 4.7999,-62.76803 62.88402,-109.99811 129.73452,-105.49134 60.43548,4.0743 108.4099,49.37946 112.40066,106.14677"
     sodipodi:ry="113.94415"
     sodipodi:rx="121.35515"
     sodipodi:cy="-390.00394"
     sodipodi:cx="569.7207"
     id="path3277"
     style="fill:#00aa44;fill-opacity:1;fill-rule:nonzero;stroke:none"
     sodipodi:type="arc" /><rect
     transform="matrix(0.93630216,0.35119549,0.35119549,-0.93630216,0,0)"
     y="349.79276"
     x="-1067.8926"
     height="2.8627744"
     width="216.13947"
     id="rect3279"
     style="fill:#ffffff;fill-opacity:1;fill-rule:nonzero;stroke:none" /><rect
     style="fill:#ffffff;fill-opacity:1;fill-rule:nonzero;stroke:none"
     id="rect3281"
     width="31.880823"
     height="1.3245641"
     x="-1359.7869"
     y="-540.40814"
     transform="matrix(0.45943045,0.88821375,0.39813857,-0.91732528,0,0)" /><rect
     transform="matrix(0.45943045,0.88821375,0.39813857,-0.91732528,0,0)"
     y="-469.40585"
     x="-1264.6873"
     height="1.8839425"
     width="45.34446"
     id="rect3283"
     style="fill:#ffffff;fill-opacity:1;fill-rule:nonzero;stroke:none" /><rect
     transform="matrix(-0.88821375,0.45943045,0.91732528,0.39813857,0,0)"
     y="-1246.1704"
     x="-389.2467"
     height="1.3245641"
     width="31.880823"
     id="rect3285"
     style="fill:#ffffff;fill-opacity:1;fill-rule:nonzero;stroke:none" /><rect
     style="fill:#ffffff;fill-opacity:1;fill-rule:nonzero;stroke:none"
     id="rect3287"
     width="41.955151"
     height="1.9497805"
     x="417.16614"
     y="1243.4329"
     transform="matrix(0.93457628,-0.3557628,-0.921378,-0.3886677,0,0)" /><path
     transform="matrix(0.59447102,0.68705737,0.21576197,-0.18668637,-938.25351,-1172.7562)"
     sodipodi:open="true"
     sodipodi:end="6.2172737"
     sodipodi:start="3.2132701"
     d="m 448.67716,-398.16417 c 4.7999,-62.76803 62.88402,-109.99811 129.73452,-105.49134 60.43548,4.0743 108.4099,49.37946 112.40066,106.14677"
     sodipodi:ry="113.94415"
     sodipodi:rx="121.35515"
     sodipodi:cy="-390.00394"
     sodipodi:cx="569.7207"
     id="path3289"
     style="fill:#ff0000;fill-opacity:1;fill-rule:nonzero;stroke:none"
     sodipodi:type="arc" /><path
     sodipodi:type="arc"
     style="fill:#00aa44;fill-opacity:1;fill-rule:nonzero;stroke:none"
     id="path3291"
     sodipodi:cx="569.7207"
     sodipodi:cy="-390.00394"
     sodipodi:rx="121.35515"
     sodipodi:ry="113.94415"
     d="m 448.67716,-398.16417 c 4.7999,-62.76803 62.88402,-109.99811 129.73452,-105.49134 60.43548,4.0743 108.4099,49.37946 112.40066,106.14677"
     sodipodi:start="3.2132701"
     sodipodi:end="6.2172737"
     sodipodi:open="true"
     transform="matrix(0.61420485,0.70986467,-0.21059213,0.18221321,-1118.5178,-1034.7079)" /><rect
     style="fill:#ffffff;fill-opacity:1;fill-rule:nonzero;stroke:none"
     id="rect3293"
     width="216.13948"
     height="2.8627744"
     x="-1090.2872"
     y="-59.680725"
     transform="matrix(0.65431516,0.75622197,0.75622197,-0.65431516,0,0)" /><rect
     transform="matrix(-0.02131659,0.99977278,0.78837238,-0.61519834,0,0)"
     y="-951.8269"
     x="-1361.9022"
     height="1.3245641"
     width="31.880823"
     id="rect3295"
     style="fill:#ffffff;fill-opacity:1;fill-rule:nonzero;stroke:none" /><rect
     style="fill:#ffffff;fill-opacity:1;fill-rule:nonzero;stroke:none"
     id="rect3297"
     width="45.34446"
     height="1.8839425"
     x="-1266.8026"
     y="-880.82446"
     transform="matrix(-0.02131659,0.99977278,0.78837238,-0.61519834,0,0)" /><rect
     style="fill:#ffffff;fill-opacity:1;fill-rule:nonzero;stroke:none"
     id="rect3299"
     width="31.880823"
     height="1.3245641"
     x="139.83739"
     y="-913.50085"
     transform="matrix(-0.99977278,-0.02131659,0.61519834,0.78837238,0,0)" /><rect
     transform="matrix(0.99090915,0.13453273,-0.62328703,-0.78199315,0,0)"
     y="820.38794"
     x="-176.21233"
     height="1.9497805"
     width="41.955151"
     id="rect3301"
     style="fill:#ffffff;fill-opacity:1;fill-rule:nonzero;stroke:none" /><path
     inkscape:transform-center-y="-6.5006617"
     inkscape:transform-center-x="38.885758"
     sodipodi:type="arc"
     style="fill:#00aa44;fill-opacity:1;fill-rule:nonzero;stroke:none"
     id="path3303"
     sodipodi:cx="569.7207"
     sodipodi:cy="-390.00394"
     sodipodi:rx="121.35515"
     sodipodi:ry="113.94415"
     d="m 448.67716,-398.16417 c 4.7999,-62.76803 62.88402,-109.99811 129.73452,-105.49134 60.43548,4.0743 108.4099,49.37946 112.40066,106.14677"
     sodipodi:start="3.2132701"
     sodipodi:end="6.2172737"
     sodipodi:open="true"
     transform="matrix(0.45972162,0.78364511,0.24609417,-0.14436995,-750.62137,-1198.0858)" /><path
     inkscape:transform-center-y="-1.2472394"
     inkscape:transform-center-x="32.935738"
     transform="matrix(0.47189604,0.80439772,-0.2386368,0.13999512,-950.9696,-1093.0811)"
     sodipodi:open="true"
     sodipodi:end="6.2172737"
     sodipodi:start="3.2132701"
     d="m 448.67716,-398.16417 c 4.7999,-62.76803 62.88402,-109.99811 129.73452,-105.49134 60.43548,4.0743 108.4099,49.37946 112.40066,106.14677"
     sodipodi:ry="113.94415"
     sodipodi:rx="121.35515"
     sodipodi:cy="-390.00394"
     sodipodi:cx="569.7207"
     id="path3305"
     style="fill:#ffff00;fill-opacity:1;fill-rule:nonzero;stroke:none"
     sodipodi:type="arc" /><rect
     inkscape:transform-center-y="-4.9840067"
     inkscape:transform-center-x="38.339867"
     transform="matrix(0.50600084,0.86253298,0.86253298,-0.50600084,0,0)"
     y="-158.70813"
     x="-1002.7133"
     height="2.8627744"
     width="216.13947"
     id="rect3307"
     style="fill:#ffffff;fill-opacity:1;fill-rule:nonzero;stroke:none" /><rect
     inkscape:transform-center-y="-55.824883"
     inkscape:transform-center-x="58.063107"
     style="fill:#ffffff;fill-opacity:1;fill-rule:nonzero;stroke:none"
     id="rect3309"
     width="31.880823"
     height="1.324564"
     x="-1242.5931"
     y="-970.90741"
     transform="matrix(-0.20263986,0.97925333,0.88703981,-0.46169294,0,0)" /><rect
     inkscape:transform-center-y="-0.29853978"
     inkscape:transform-center-x="22.661098"
     transform="matrix(-0.20263986,0.97925333,0.88703981,-0.46169294,0,0)"
     y="-899.90509"
     x="-1147.4935"
     height="1.8839425"
     width="45.34446"
     id="rect3311"
     style="fill:#ffffff;fill-opacity:1;fill-rule:nonzero;stroke:none" /><rect
     inkscape:transform-center-y="-24.573986"
     inkscape:transform-center-x="60.574505"
     transform="matrix(-0.97925333,-0.20263986,0.46169294,0.88703981,0,0)"
     y="-744.01447"
     x="261.71872"
     height="1.324564"
     width="31.880823"
     id="rect3313"
     style="fill:#ffffff;fill-opacity:1;fill-rule:nonzero;stroke:none" /><rect
     inkscape:transform-center-y="32.080213"
     inkscape:transform-center-x="27.473286"
     style="fill:#ffffff;fill-opacity:1;fill-rule:nonzero;stroke:none"
     id="rect3315"
     width="41.955151"
     height="1.9497805"
     x="-314.28918"
     y="629.08691"
     transform="matrix(0.9499637,0.31236031,-0.47080617,-0.88223667,0,0)" /></g></svg>