<?xml version="1.0" encoding="UTF-8" standalone="no"?>
<!-- Generator: Adobe Illustrator 14.0.0, SVG Export Plug-In . SVG Version: 6.00 Build 43363)  -->

<svg
   xmlns:dc="http://purl.org/dc/elements/1.1/"
   xmlns:cc="http://creativecommons.org/ns#"
   xmlns:rdf="http://www.w3.org/1999/02/22-rdf-syntax-ns#"
   xmlns:svg="http://www.w3.org/2000/svg"
   xmlns="http://www.w3.org/2000/svg"
   xmlns:sodipodi="http://sodipodi.sourceforge.net/DTD/sodipodi-0.dtd"
   xmlns:inkscape="http://www.inkscape.org/namespaces/inkscape"
   id="Layer_1"
   enable-background="new 0 0 22 22"
   xml:space="preserve"
   height="22px"
   viewBox="0 0 22 22"
   width="22px"
   version="1.1"
   y="0px"
   x="0px"
   inkscape:version="0.48.3.1 r9886"
   sodipodi:docname="system-devices-panel.svg"><defs
   id="defs12" /><sodipodi:namedview
   pagecolor="#ffffff"
   bordercolor="#666666"
   borderopacity="1"
   objecttolerance="10"
   gridtolerance="10"
   guidetolerance="10"
   inkscape:pageopacity="0"
   inkscape:pageshadow="2"
   inkscape:window-width="1024"
   inkscape:window-height="716"
   id="namedview10"
   showgrid="false"
   inkscape:zoom="31.588235"
   inkscape:cx="11"
   inkscape:cy="10.5"
   inkscape:window-x="0"
   inkscape:window-y="24"
   inkscape:window-maximized="1"
   inkscape:current-layer="Layer_1" /><metadata
   id="metadata13"><rdf:RDF><cc:Work
       rdf:about=""><dc:format>image/svg+xml</dc:format><dc:type
         rdf:resource="http://purl.org/dc/dcmitype/StillImage" /><dc:title></dc:title></cc:Work></rdf:RDF></metadata>


<path
   transform="matrix(0.0529499,0.01986086,0.00623706,-0.01662827,-21.209542,-5.0768076)"
   sodipodi:open="true"
   sodipodi:end="6.2172737"
   sodipodi:start="3.2132701"
   d="m 448.67716,-398.16417 a 121.35515,113.94415 0 0 1 242.13518,0.65543"
   sodipodi:ry="113.94415"
   sodipodi:rx="121.35515"
   sodipodi:cy="-390.00394"
   sodipodi:cx="569.7207"
   id="path3275"
   style="fill:#ff0000;fill-opacity:1;fill-rule:nonzero;stroke:none"
   sodipodi:type="arc" /><path
   sodipodi:type="arc"
   style="fill:#ff0000;fill-opacity:1;fill-rule:nonzero;stroke:none"
   id="path3277"
   sodipodi:cx="569.7207"
   sodipodi:cy="-390.00394"
   sodipodi:rx="121.35515"
   sodipodi:ry="113.94415"
   d="m 448.67716,-398.16417 a 121.35515,113.94415 0 0 1 242.13518,0.65543"
   sodipodi:start="3.2132701"
   sodipodi:end="6.2172737"
   sodipodi:open="true"
   transform="matrix(0.05414564,0.02030937,-0.00602508,0.01606313,-26.676122,7.8488314)" /><rect
   style="fill:#ffffff;fill-opacity:1;fill-rule:nonzero;stroke:none"
   id="rect3279"
   width="13.453631"
   height="0.17819379"
   x="3.9095285"
   y="-10.009378"
   transform="matrix(0.93630217,0.35119545,0.35119545,-0.93630217,0,0)" /><rect
   transform="matrix(0.45943041,0.88821377,0.39813856,-0.91732529,0,0)"
   y="-3.2028203"
   x="8.1235123"
   height="0.082447678"
   width="1.9844263"
   id="rect3281"
   style="fill:#ffffff;fill-opacity:1;fill-rule:nonzero;stroke:none" /><rect
   style="fill:#ffffff;fill-opacity:1;fill-rule:nonzero;stroke:none"
   id="rect3283"
   width="2.8224721"
   height="0.11726626"
   x="14.043"
   y="1.216727"
   transform="matrix(0.45943041,0.88821377,0.39813856,-0.91732529,0,0)" /><rect
   style="fill:#ffffff;fill-opacity:1;fill-rule:nonzero;stroke:none"
   id="rect3285"
   width="1.9844263"
   height="0.082447678"
   x="12.127618"
   y="17.303381"
   transform="matrix(-0.88821377,0.45943041,0.91732529,0.39813856,0,0)" /><rect
   transform="matrix(0.93457626,-0.35576287,-0.92137797,-0.38866778,0,0)"
   y="-24.456081"
   x="-15.881298"
   height="0.12136436"
   width="2.6115043"
   id="rect3287"
   style="fill:#ffffff;fill-opacity:1;fill-rule:nonzero;stroke:none" /><path
   sodipodi:type="arc"
   style="fill:#550000;fill-opacity:1;fill-rule:nonzero;stroke:none"
   id="path3289"
   sodipodi:cx="569.7207"
   sodipodi:cy="-390.00394"
   sodipodi:rx="121.35515"
   sodipodi:ry="113.94415"
   d="m 448.67716,-398.16417 a 121.35515,113.94415 0 0 1 242.13518,0.65543"
   sodipodi:start="3.2132701"
   sodipodi:end="6.2172737"
   sodipodi:open="true"
   transform="matrix(0.03700293,0.04276598,0.01343013,-0.01162032,-3.6659551,-18.523194)" /><path
   transform="matrix(0.03823127,0.04418563,-0.01310834,0.01134189,-14.886531,-9.9303581)"
   sodipodi:open="true"
   sodipodi:end="6.2172737"
   sodipodi:start="3.2132701"
   d="m 448.67716,-398.16417 a 121.35515,113.94415 0 0 1 242.13518,0.65543"
   sodipodi:ry="113.94415"
   sodipodi:rx="121.35515"
   sodipodi:cy="-390.00394"
   sodipodi:cx="569.7207"
   id="path3291"
   style="fill:#ff0000;fill-opacity:1;fill-rule:nonzero;stroke:none"
   sodipodi:type="arc" /><rect
   transform="matrix(0.65431519,0.75622194,0.75622194,-0.65431519,0,0)"
   y="2.0336146"
   x="9.1446896"
   height="0.17819379"
   width="13.453632"
   id="rect3293"
   style="fill:#ffffff;fill-opacity:1;fill-rule:nonzero;stroke:none" /><rect
   style="fill:#ffffff;fill-opacity:1;fill-rule:nonzero;stroke:none"
   id="rect3295"
   width="1.9844264"
   height="0.082447678"
   x="14.082701"
   y="12.855115"
   transform="matrix(-0.02131652,0.99977278,0.78837236,-0.61519836,0,0)" /><rect
   transform="matrix(-0.02131652,0.99977278,0.78837236,-0.61519836,0,0)"
   y="17.274672"
   x="20.00219"
   height="0.11726627"
   width="2.8224723"
   id="rect3297"
   style="fill:#ffffff;fill-opacity:1;fill-rule:nonzero;stroke:none" /><rect
   transform="matrix(-0.99977278,-0.02131652,0.61519836,0.78837236,0,0)"
   y="11.901035"
   x="-3.7321072"
   height="0.082447678"
   width="1.9844264"
   id="rect3299"
   style="fill:#ffffff;fill-opacity:1;fill-rule:nonzero;stroke:none" /><rect
   style="fill:#ffffff;fill-opacity:1;fill-rule:nonzero;stroke:none"
   id="rect3301"
   width="2.6115043"
   height="0.12136436"
   x="1.83759"
   y="-16.393694"
   transform="matrix(0.99090915,0.13453275,-0.62328707,-0.78199312,0,0)" /><path
   transform="matrix(0.02861544,0.0487781,0.01531817,-0.00898633,8.0132337,-20.099838)"
   sodipodi:open="true"
   sodipodi:end="6.2172737"
   sodipodi:start="3.2132701"
   d="m 448.67716,-398.16417 a 121.35515,113.94415 0 0 1 242.13518,0.65543"
   sodipodi:ry="113.94415"
   sodipodi:rx="121.35515"
   sodipodi:cy="-390.00394"
   sodipodi:cx="569.7207"
   id="path3303"
   style="fill:#ff0000;fill-opacity:1;fill-rule:nonzero;stroke:none"
   sodipodi:type="arc"
   inkscape:transform-center-x="38.885758"
   inkscape:transform-center-y="-6.5006617" /><path
   sodipodi:type="arc"
   style="fill:#aa0000;fill-opacity:1;fill-rule:nonzero;stroke:none"
   id="path3305"
   sodipodi:cx="569.7207"
   sodipodi:cy="-390.00394"
   sodipodi:rx="121.35515"
   sodipodi:ry="113.94415"
   d="m 448.67716,-398.16417 a 121.35515,113.94415 0 0 1 242.13518,0.65543"
   sodipodi:start="3.2132701"
   sodipodi:end="6.2172737"
   sodipodi:open="true"
   transform="matrix(0.02937324,0.05006985,-0.01485398,0.00871402,-4.4574699,-13.563806)"
   inkscape:transform-center-x="32.935738"
   inkscape:transform-center-y="-1.2472394" /><rect
   style="fill:#ffffff;fill-opacity:1;fill-rule:nonzero;stroke:none"
   id="rect3307"
   width="13.453631"
   height="0.17819379"
   x="12.26895"
   y="9.7681122"
   transform="matrix(0.50600078,0.86253302,0.86253302,-0.50600078,0,0)"
   inkscape:transform-center-x="38.339867"
   inkscape:transform-center-y="-4.9840067" /><rect
   transform="matrix(-0.20263992,0.97925332,0.88703983,-0.4616929,0,0)"
   y="22.962395"
   x="17.603313"
   height="0.08244767"
   width="1.9844263"
   id="rect3309"
   style="fill:#ffffff;fill-opacity:1;fill-rule:nonzero;stroke:none"
   inkscape:transform-center-x="58.063107"
   inkscape:transform-center-y="-55.824883" /><rect
   style="fill:#ffffff;fill-opacity:1;fill-rule:nonzero;stroke:none"
   id="rect3311"
   width="2.8224723"
   height="0.11726627"
   x="23.522802"
   y="27.381943"
   transform="matrix(-0.20263992,0.97925332,0.88703983,-0.4616929,0,0)"
   inkscape:transform-center-x="22.661098"
   inkscape:transform-center-y="-0.29853978" /><rect
   style="fill:#ffffff;fill-opacity:1;fill-rule:nonzero;stroke:none"
   id="rect3313"
   width="1.9844263"
   height="0.08244767"
   x="-13.902323"
   y="8.2035885"
   transform="matrix(-0.97925332,-0.20263992,0.4616929,0.88703983,0,0)"
   inkscape:transform-center-x="60.574505"
   inkscape:transform-center-y="-24.573986" /><rect
   transform="matrix(0.9499637,0.31236031,-0.47080619,-0.88223666,0,0)"
   y="-10.987945"
   x="13.203468"
   height="0.12136437"
   width="2.6115041"
   id="rect3315"
   style="fill:#ffffff;fill-opacity:1;fill-rule:nonzero;stroke:none"
   inkscape:transform-center-x="27.473286"
   inkscape:transform-center-y="32.080213" /></svg>