<?xml version="1.0" encoding="UTF-8" standalone="no"?>
<svg
   xmlns:dc="http://purl.org/dc/elements/1.1/"
   xmlns:cc="http://creativecommons.org/ns#"
   xmlns:rdf="http://www.w3.org/1999/02/22-rdf-syntax-ns#"
   xmlns:svg="http://www.w3.org/2000/svg"
   xmlns="http://www.w3.org/2000/svg"
   xmlns:xlink="http://www.w3.org/1999/xlink"
   xmlns:sodipodi="http://sodipodi.sourceforge.net/DTD/sodipodi-0.dtd"
   xmlns:inkscape="http://www.inkscape.org/namespaces/inkscape"
   width="48"
   viewBox="0 0 48 48"
   height="48"
   id="svg2"
   version="1.1"
   inkscape:version="0.48.4 r9939"
   sodipodi:docname="application-x-perl.svg">
  <metadata
     id="metadata22">
    <rdf:RDF>
      <cc:Work
         rdf:about="">
        <dc:format>image/svg+xml</dc:format>
        <dc:type
           rdf:resource="http://purl.org/dc/dcmitype/StillImage" />
        <dc:title></dc:title>
      </cc:Work>
    </rdf:RDF>
  </metadata>
  <defs
     id="defs20">
    <radialGradient
       r="12.939"
       gradientTransform="matrix(0.93041,-0.0037232,0.0052113,1.3023,0.50192,-8.0422)"
       cx="9.9091"
       cy="26.783"
       gradientUnits="userSpaceOnUse"
       xlink:href="#linearGradient3793"
       id="radialGradient3843" />
    <radialGradient
       r="12.939"
       gradientTransform="matrix(0.87303,-0.13931,0.057964,0.36324,0.40774,10.716)"
       cx="29.987"
       cy="40.088"
       gradientUnits="userSpaceOnUse"
       xlink:href="#linearGradient3793"
       id="radialGradient3839" />
    <radialGradient
       r="12.939"
       gradientTransform="matrix(0.32717,0.0039737,-0.0063916,0.52625,12.331,2.9198)"
       cx="19.806"
       cy="15.585"
       gradientUnits="userSpaceOnUse"
       xlink:href="#linearGradient3793"
       id="radialGradient3833" />
    <radialGradient
       r="12.939"
       gradientTransform="matrix(0.99912,-0.042019,0.034778,0.82696,-0.8491,5.2951)"
       cx="23.061"
       cy="25"
       gradientUnits="userSpaceOnUse"
       xlink:href="#linearGradient3793"
       id="radialGradient3819" />
    <radialGradient
       r="12.939"
       gradientTransform="matrix(1.5778,-0.37286,0.072006,0.30471,-17.372,28.241)"
       cx="26.811"
       cy="26.109"
       gradientUnits="userSpaceOnUse"
       xlink:href="#linearGradient3793"
       id="radialGradient3807" />
    <radialGradient
       r="12.939"
       gradientTransform="matrix(0.65263,-0.001358,9.001e-4,0.43258,8.1695,6.5163)"
       cx="24.628"
       cy="20.961"
       gradientUnits="userSpaceOnUse"
       xlink:href="#linearGradient3793"
       id="radialGradient3803" />
    <radialGradient
       r="12.939"
       gradientTransform="matrix(0.84922,0.011734,-0.012068,0.87332,2.9745,1.3292)"
       cx="17.588"
       cy="20.685"
       gradientUnits="userSpaceOnUse"
       xlink:href="#linearGradient3793"
       id="radialGradient3799" />
    <linearGradient
       x1="34"
       y1="9"
       gradientTransform="translate(-5,-6)"
       x2="34"
       gradientUnits="userSpaceOnUse"
       y2="49"
       id="linearGradient5553">
      <stop
         offset="0"
         style="stop-color:#4580d4"
         id="stop6495" />
      <stop
         offset="1"
         style="stop-color:#114796"
         id="stop6497" />
    </linearGradient>
    <radialGradient
       r="22.464"
       gradientTransform="matrix(1.2251,-0.018811,0.018929,1.2336,-5.611,-4.1683)"
       cx="20.039"
       cy="12.61"
       gradientUnits="userSpaceOnUse"
       id="radialGradient5551">
      <stop
         offset="0"
         style="stop-color:#94c1fc"
         id="stop4105" />
      <stop
         offset="1"
         style="stop-color:#3465a4"
         id="stop4107" />
    </radialGradient>
    <radialGradient
       r="20"
       gradientTransform="matrix(1.01,-0.112,0.056688,0.51121,-5.8376,1.7935)"
       cx="22.125"
       cy="10.875"
       gradientUnits="userSpaceOnUse"
       id="radialGradient5540">
      <stop
         offset="0"
         style="stop-color:#fff"
         id="stop3158" />
      <stop
         offset="1"
         style="stop-color:#fff;stop-opacity:0"
         id="stop3160" />
    </radialGradient>
    <radialGradient
       r="10.625"
       gradientTransform="matrix(1,0,0,0.34118,0,3.0471)"
       cx="62.625"
       cy="4.625"
       gradientUnits="userSpaceOnUse"
       xlink:href="#linearGradient3793"
       id="radialGradient5729" />
    <linearGradient
       id="linearGradient3793">
      <stop
         offset="0"
         id="stop3795" />
      <stop
         offset="1"
         style="stop-opacity:0"
         id="stop3797" />
    </linearGradient>
    <radialGradient
       r="12.939"
       gradientTransform="matrix(.93041 -.0037232 .0052113 1.3023 .50192 -8.0422)"
       cx="9.9091"
       cy="26.783"
       gradientUnits="userSpaceOnUse"
       xlink:href="#linearGradient3793-6"
       id="radialGradient3843-2" />
    <radialGradient
       r="12.939"
       gradientTransform="matrix(.87303 -.13931 .057964 .36324 .40774 10.716)"
       cx="29.987"
       cy="40.088"
       gradientUnits="userSpaceOnUse"
       xlink:href="#linearGradient3793-6"
       id="radialGradient3839-6" />
    <radialGradient
       r="12.939"
       gradientTransform="matrix(.32717 .0039737 -.0063916 .52625 12.331 2.9198)"
       cx="19.806"
       cy="15.585"
       gradientUnits="userSpaceOnUse"
       xlink:href="#linearGradient3793-6"
       id="radialGradient3833-1" />
    <radialGradient
       r="12.939"
       gradientTransform="matrix(.99912 -.042019 .034778 .82696 -.84910 5.2951)"
       cx="23.061"
       cy="25"
       gradientUnits="userSpaceOnUse"
       xlink:href="#linearGradient3793-6"
       id="radialGradient3819-9" />
    <radialGradient
       r="12.939"
       gradientTransform="matrix(1.5778 -.37286 .072006 .30471 -17.372 28.241)"
       cx="26.811"
       cy="26.109"
       gradientUnits="userSpaceOnUse"
       xlink:href="#linearGradient3793-6"
       id="radialGradient3807-6" />
    <radialGradient
       r="12.939"
       gradientTransform="matrix(.65263 -.0013580 .00090010 .43258 8.1695 6.5163)"
       cx="24.628"
       cy="20.961"
       gradientUnits="userSpaceOnUse"
       xlink:href="#linearGradient3793-6"
       id="radialGradient3803-1" />
    <radialGradient
       r="12.939"
       gradientTransform="matrix(.84922 .011734 -.012068 .87332 2.9745 1.3292)"
       cx="17.588"
       cy="20.685"
       gradientUnits="userSpaceOnUse"
       xlink:href="#linearGradient3793-6"
       id="radialGradient3799-0" />
    <linearGradient
       x1="34"
       y1="9"
       gradientTransform="translate(-5 -6)"
       x2="34"
       gradientUnits="userSpaceOnUse"
       y2="49"
       id="linearGradient5553-0">
      <stop
         offset="0"
         style="stop-color:#4580d4"
         id="stop6495-7" />
      <stop
         offset="1"
         style="stop-color:#114796"
         id="stop6497-8" />
    </linearGradient>
    <radialGradient
       r="22.464"
       gradientTransform="matrix(1.2251 -.018811 .018929 1.2336 -5.611 -4.1683)"
       cx="20.039"
       cy="12.61"
       gradientUnits="userSpaceOnUse"
       id="radialGradient5551-9">
      <stop
         offset="0"
         style="stop-color:#94c1fc"
         id="stop4105-5" />
      <stop
         offset="1"
         style="stop-color:#3465a4"
         id="stop4107-2" />
    </radialGradient>
    <radialGradient
       r="20"
       gradientTransform="matrix(1.01 -0.112 .056688 .51121 -5.8376 1.7935)"
       cx="22.125"
       cy="10.875"
       gradientUnits="userSpaceOnUse"
       id="radialGradient5540-0">
      <stop
         offset="0"
         style="stop-color:#fff"
         id="stop3158-8" />
      <stop
         offset="1"
         style="stop-color:#fff;stop-opacity:0"
         id="stop3160-7" />
    </radialGradient>
    <radialGradient
       r="10.625"
       gradientTransform="matrix(1 0 0 .34118 0 3.0471)"
       cx="62.625"
       cy="4.625"
       gradientUnits="userSpaceOnUse"
       xlink:href="#linearGradient3793-6"
       id="radialGradient5729-1" />
    <linearGradient
       id="linearGradient3793-6">
      <stop
         offset="0"
         id="stop3795-4" />
      <stop
         offset="1"
         style="stop-opacity:0"
         id="stop3797-6" />
    </linearGradient>
  </defs>
  <sodipodi:namedview
     pagecolor="#ffffff"
     bordercolor="#666666"
     borderopacity="1"
     objecttolerance="10"
     gridtolerance="10"
     guidetolerance="10"
     inkscape:pageopacity="0"
     inkscape:pageshadow="2"
     inkscape:window-width="640"
     inkscape:window-height="480"
     id="namedview18"
     showgrid="false"
     inkscape:zoom="4.9166667"
     inkscape:cx="23.682334"
     inkscape:cy="24"
     inkscape:window-x="10"
     inkscape:window-y="34"
     inkscape:window-maximized="0"
     inkscape:current-layer="svg2" />
  <path
     d="m8 1c-1.0286 0-2 0.9714-2 2v42c0 0.97143 1.0286 2 2 2h32c0.97143 0 2-1.0286 2-2v-31l-13-13z"
     fill="#dcdcdc"
     id="path4"
     style="fill:#4777b5;fill-opacity:1" />
  <path
     d="m29 12 0.062 0.062 0.157-0.062h-0.219zm2 2 11 11v-11h-11z"
     fill-opacity=".196"
     id="path6" />
  <path
     fill="#fff"
     d="m29 1 13 13h-11c-0.97143 0-2-1.0286-2-2v-11z"
     fill-opacity=".392"
     id="path8" />
  <g
     transform="translate(-.5)"
     fill="#888"
     id="g10" />
  <g
     id="layer1"
     transform="matrix(0.88074402,0,0,0.84181019,3.0024058,4.9011992)"
     style="fill:#ffffff">
    <g
       id="g6334"
       style="fill:#ffffff">
      <path
         d="m 10.122,14.398 c 0.54701,0.95089 1.7235,1.0196 2.5357,0.87484 -0.89602,3.356 -0.27613,6.4392 1.3737,8.3825 0.9639,1.2572 1.7475,2.7914 4.1654,2.6339 1.2636,1.3461 0.11355,5.1362 0.10034,7.9953 0.057,1.5363 -0.64591,2.9659 -2.312,4.5022 l 2.463,0.214 c 0.91855,-3.3154 1.99,-4.1491 2.4061,-10.961 0.10867,-0.92889 0.29931,-1.8064 1.3282,-1.5855 0.15098,3.0958 -0.68413,4.8556 0.21979,6.3162 l 4.4295,5.249 0.92911,-0.89618 -3.6315,-4.8466 -0.0095,-1.704 0.24062,-4.292 3.0191,-0.36585 c 0.31317,3.0225 -0.37515,4.9147 -0.91373,6.255 -1.0573,1.9305 -1.667,2.8444 -2.9796,4.2705 l 1.2316,1.1096 c 1.5081,-1.7184 2.5223,-2.9226 3.5197,-5.1454 0.95063,-1.3587 1.3123,-5.0879 1.7194,-7.52 l 1.3396,-0.27739 c 0.51752,1.1485 1.0145,3.9055 1.2619,5.2386 0.4393,5.8288 -0.49175,6.6807 -0.75727,8.1737 0.87763,0.69784 1.295,1.0154 2.1175,0 v -14.872 c 1.283,-0.10249 0.98742,1.4356 0.8859,4.3742 1.0208,0.11637 1.3584,-2.3416 1.1236,-5.6331 -3.108,-3.534 -4.082,-11.038 -7.843,-10.884 h -0.86429 c -1.8381,-0.11164 -2.7163,1.6205 -3.6881,2.7423 -1.3252,0.84939 -2.9198,2.1017 -3.9339,3.7166 -0.46012,1.8331 -2.2726,2.3631 -2.1314,0.46914 0.74604,-1.8229 0.7442,-3.2572 0.3974,-4.4102 -0.57278,-1.603 -1.2671,-2.2855 -2.2039,-2.5178 -1.0096,0.33898 -1.893,0.60111 -2.3614,2.0088 h -2.5357 z"
         style="opacity:0.50000000000000000;fill:#ffffff"
         id="path3791"
         inkscape:connector-curvature="0" />
      <path
         d="m 18.197,26.289 3.9859,0.16415 2.178,-0.17349 3.0191,-0.36585 2.5775,-1.0303 1.3396,-0.27739 2.6222,-1.46 c 1.283,-0.10249 0.98742,1.4356 0.8859,4.3742 1.0208,0.11637 1.3584,-2.3416 1.1236,-5.6331 -3.11,-3.533 -4.084,-11.037 -7.845,-10.883 h -0.86429 c -1.8381,-0.11164 -2.7163,1.6205 -3.6881,2.7423 -1.3252,0.84939 -2.9198,2.1017 -3.9339,3.7166 -2.1208,3.3935 -1.9427,5.9263 -1.4022,8.8251 z"
         style="opacity:0.59999999999999998;fill:#ffffff"
         id="path3037"
         inkscape:connector-curvature="0" />
      <path
         d="m 18.197,26.289 3.9859,0.16415 2.178,-0.17349 3.0191,-0.36585 2.5775,-1.0303 1.3396,-0.27739 2.6222,-1.46 c 1.283,-0.10249 0.98742,1.4356 0.8859,4.3742 1.0208,0.11637 1.3584,-2.3416 1.1236,-5.6331 -3.1085,-3.5319 -4.683,-4.1366 -8.4434,-3.9821 h -0.86429 c -1.8381,-0.11164 -2.7163,1.6205 -3.6881,2.7423 -1.3252,0.84939 -2.9198,2.1017 -3.9339,3.7166 -2.1208,3.3935 -1.3427,-0.97366 -0.80217,1.9251 z"
         style="opacity:0.23999999000000000;fill:#ffffff"
         id="path3805"
         inkscape:connector-curvature="0" />
      <path
         d="m 18.197,26.289 c 1.2636,1.3461 0.11355,5.1362 0.10034,7.9953 0.057,1.5363 -0.64591,2.9659 -2.312,4.5022 l 2.463,0.213 c 0.91855,-3.3154 1.99,-4.1491 2.4061,-10.961 0.10867,-0.92889 0.29931,-1.8064 1.3282,-1.5855 0.15098,3.0958 -0.68413,4.8556 0.21979,6.3162 l 4.4295,5.249 0.92911,-0.89618 -3.6315,-4.8466 -0.0095,-1.704 0.24062,-4.292 3.0191,-0.36585 c 0.31317,3.0225 -0.37515,4.9147 -0.91373,6.255 -1.0573,1.9305 -1.667,2.8444 -2.9796,4.2705 l 1.2316,1.1096 c 1.5081,-1.7184 2.5223,-2.9226 3.5197,-5.1454 0.95063,-1.3587 1.3123,-5.0879 1.7194,-7.52 l 1.3396,-0.27739 c 0.51752,1.1485 1.0145,3.9055 1.2619,5.2386 0.4393,5.8288 -0.49175,6.6807 -0.75727,8.1737 0.87763,0.69784 1.295,1.0154 2.1175,0 v -14.872 c 1.283,-0.10249 0.98742,1.4356 0.8859,4.3742 1.0208,0.11637 1.3584,-2.3416 1.1236,-5.6331 -6.8396,4.4236 -12.43,5.1649 -17.732,4.4018 z"
         style="opacity:0.59999999999999998;fill:#ffffff"
         id="path3811"
         inkscape:connector-curvature="0" />
      <path
         d="m 10.122,14.398 c 0.54701,0.95089 1.7235,1.0196 2.5357,0.87484 -0.89602,3.356 -0.27613,6.4392 1.3737,8.3825 0.9639,1.2572 1.7475,2.7914 4.1654,2.6339 -0.49271,-1.8426 -0.53732,-4.082 0.11099,-7.1928 -0.49298,0.12489 -0.91079,-0.2161 -0.84018,-1.1631 0.74604,-1.8229 0.7442,-3.2572 0.3974,-4.4102 -0.57278,-1.603 -1.2671,-2.2855 -2.2039,-2.5178 -1.0096,0.33898 -1.893,0.60111 -2.3614,2.0088 h -2.5357 z"
         style="opacity:0.69999999999999996;fill:#ffffff"
         id="path3821"
         inkscape:connector-curvature="0" />
      <path
         d="m 10.122,14.398 c 0.54701,0.95089 1.7235,1.0196 2.5357,0.87484 -0.89602,3.356 -0.27613,6.4392 1.3737,8.3825 0.9639,1.2572 1.7475,2.7914 4.1654,2.6339 -0.49271,-1.8426 -0.53732,-4.082 0.11099,-7.1928 -0.49298,0.12489 -0.91079,-0.2161 -0.84018,-1.1631 0.74604,-1.8229 0.7442,-3.2572 0.3974,-4.4102 -0.57278,-1.603 -1.2671,-2.2855 -2.2039,-2.5178 -1.0096,0.33898 -1.893,0.60111 -2.3614,2.0088 h -2.5357 z"
         style="opacity:0.50000000000000000;fill:#ffffff"
         id="path3831"
         inkscape:connector-curvature="0" />
      <path
         d="m 26.611,20.43 3.4691,0.53415 2.1275,-1.9303 -0.01035,-2.3774 c 0.27597,0.60504 -0.52695,-4.3745 -4.1118,-5.651 h -0.86429 c -1.8381,-0.11164 -2.7163,1.6205 -3.6881,2.7423 -0.16811,3.1304 0.79994,5.4952 3.0779,6.6823 z"
         style="opacity:0.20000000000000001;fill:#ffffff"
         id="path3835"
         inkscape:connector-curvature="0" />
      <path
         d="m 29.647,13.056 c 1.751,1.8972 1.6705,-0.76116 -1.5618,-2.051 h -0.86429 c -1.8381,-0.11164 -2.7163,1.6205 -3.6881,2.7423 -0.67239,3.4616 1.9951,3.3085 6.1141,-0.69121 z"
         style="opacity:0.29999999999999999;fill:#ffffff"
         id="path3801"
         inkscape:connector-curvature="0" />
    </g>
  </g>
</svg>
