<?xml version="1.0" encoding="UTF-8" standalone="no"?>
<svg
   xmlns:dc="http://purl.org/dc/elements/1.1/"
   xmlns:cc="http://creativecommons.org/ns#"
   xmlns:rdf="http://www.w3.org/1999/02/22-rdf-syntax-ns#"
   xmlns:svg="http://www.w3.org/2000/svg"
   xmlns="http://www.w3.org/2000/svg"
   xmlns:sodipodi="http://sodipodi.sourceforge.net/DTD/sodipodi-0.dtd"
   xmlns:inkscape="http://www.inkscape.org/namespaces/inkscape"
   width="48"
   viewBox="0 0 48 48"
   height="48"
   id="svg2"
   version="1.1"
   inkscape:version="0.48.4 r9939"
   sodipodi:docname="text-x-markdown.svg">
  <metadata
     id="metadata34">
    <rdf:RDF>
      <cc:Work
         rdf:about="">
        <dc:format>image/svg+xml</dc:format>
        <dc:type
           rdf:resource="http://purl.org/dc/dcmitype/StillImage" />
        <dc:title></dc:title>
      </cc:Work>
    </rdf:RDF>
  </metadata>
  <defs
     id="defs32" />
  <sodipodi:namedview
     pagecolor="#ffffff"
     bordercolor="#666666"
     borderopacity="1"
     objecttolerance="10"
     gridtolerance="10"
     guidetolerance="10"
     inkscape:pageopacity="0"
     inkscape:pageshadow="2"
     inkscape:window-width="640"
     inkscape:window-height="480"
     id="namedview30"
     showgrid="false"
     inkscape:zoom="4.9166667"
     inkscape:cx="9.4576271"
     inkscape:cy="24"
     inkscape:window-x="183"
     inkscape:window-y="67"
     inkscape:window-maximized="0"
     inkscape:current-layer="svg2" />
  <path
     d="m8 1c-1.0286 0-2 0.9714-2 2v42c0 0.97143 1.0286 2 2 2h32c0.97143 0 2-1.0286 2-2v-31l-13-13z"
     fill="#dcdcdc"
     id="path4" />
  <path
     d="m29 12 0.062 0.062 0.157-0.062h-0.219zm2 2 11 11v-11h-11z"
     fill-opacity=".196"
     id="path6" />
  <path
     fill="#fff"
     d="m29 1 13 13h-11c-0.97143 0-2-1.0286-2-2v-11z"
     fill-opacity=".392"
     id="path8" />
  <path
     style="fill:#808080"
     inkscape:connector-curvature="0"
     id="path20"
     d="m 14,29 v 1 h 20 v -1 z" />
  <path
     style="fill:#808080"
     inkscape:connector-curvature="0"
     id="path22"
     d="m 14,31 v 1 h 20 v -1 z" />
  <path
     style="fill:#808080"
     inkscape:connector-curvature="0"
     id="path24"
     d="m 14,33 v 1 h 20 v -1 z" />
  <path
     style="fill:#808080"
     inkscape:connector-curvature="0"
     id="path26"
     d="m 14,35 v 1 h 20 v -1 z" />
  <path
     style="fill:#808080"
     inkscape:connector-curvature="0"
     id="path28"
     d="m 14,37 v 1 h 20 v -1 z" />
  <g
     style="fill:#808080"
     transform="matrix(0.03321137,0,0,0.03375307,11.681526,12.104284)"
     id="g10">
    <path
       inkscape:connector-curvature="0"
       d="m 141,238 c 18.514,0.807 38.845,12.452 54,22.344 44.528,29.067 79.993,77.323 73,132.66 6.644,-10.558 7.005,-25.915 7,-38 -0.02,-38.88 -21.15,-78.83 -48,-106 -8.95,-9.05 -18.34,-19.46 -30,-25 l 132.27,-154 31.73,-37 c 2.449,-2.8377 10.588,-9.4499 8.824,-13.671 -1.64,-3.935 -9.22,-6.395 -12.82,-8.017 -4.07,-1.8334 -11.48,-5.6272 -15.98,-3.9841 -4.6,1.6755 -8.51,8.0781 -11.6,11.672 l -24.29,28 -114.41,132 -33.85,39 c -5.391,6.261 -12.41,12.447 -15.87,20 z"
       id="path12"
       style="fill:#808080" />
    <path
       inkscape:connector-curvature="0"
       d="m 66,283 c 45.491,-47.531 85.688,-100.6 129.16,-150 l 55,-64 C 262.77,54.669 277.87,40.19 288,24 281.41,22.052 266.29,20.868 260,24.028 253.28,27.402 247.61,36.42 242.72,42 l -31.291,35 c -4.612,5.3198 -10.069,13.749 -16.425,16.973 -9.153,4.6431 -25.879,2.7931 -35.999,3.0416 l -37,2.8959 c -27.603,1.929 -59.063,1.989 -72.687,31.089 -10.927,23.337 -9.2531,56.661 -10.363,82 -2.3249,53.095 -4.1748,106.99 0.8696,160 2.1611,22.708 -0.3947,51.687 11.402,72 11.525,19.844 33.79,24.124 54.768,26.075 40.603,3.775 89.231,2.673 122,-25.375 38.892,-33.29 33.398,-92.806 -2,-125.61 -38.72,-35.88 -109.61,-54.11 -160,-37.09 z"
       id="path14"
       style="fill:#808080" />
    <path
       inkscape:connector-curvature="0"
       d="m 203,476 c 7.355,3.086 19.953,2 28,2 l 51,1 c 64.687,0 128.55,-4.035 193,-6.961 30.612,-1.389 65.241,-2.494 77.934,-36.039 8.056,-21.288 6.617,-48.539 8.155,-71 3.554,-51.884 5.016,-105.15 0.081,-157 -2.312,-24.294 0.591,-54.495 -10.06,-77 -16.48,-34.847 -66.34,-32.199 -99.1,-33.015 -8.109,-0.2019 -23.216,-4.892 -30.606,-1.382 -5.623,2.6707 -9.033,16.969 -11.652,22.397 l -29.051,63 c -34.22,74.54 -66.29,150.89 -103.45,224 -14.41,28.35 -40.43,64.18 -74.24,70 z"
       id="path16"
       style="fill:#808080" />
  </g>
</svg>
