<?xml version="1.0" encoding="UTF-8" standalone="no"?>
<svg
   xmlns:dc="http://purl.org/dc/elements/1.1/"
   xmlns:cc="http://creativecommons.org/ns#"
   xmlns:rdf="http://www.w3.org/1999/02/22-rdf-syntax-ns#"
   xmlns:svg="http://www.w3.org/2000/svg"
   xmlns="http://www.w3.org/2000/svg"
   xmlns:sodipodi="http://sodipodi.sourceforge.net/DTD/sodipodi-0.dtd"
   xmlns:inkscape="http://www.inkscape.org/namespaces/inkscape"
   width="48"
   viewBox="0 0 48 48"
   height="48"
   id="svg2"
   version="1.1"
   inkscape:version="0.48.4 r9939"
   sodipodi:docname="text-x-script.svg">
  <metadata
     id="metadata22">
    <rdf:RDF>
      <cc:Work
         rdf:about="">
        <dc:format>image/svg+xml</dc:format>
        <dc:type
           rdf:resource="http://purl.org/dc/dcmitype/StillImage" />
      </cc:Work>
    </rdf:RDF>
  </metadata>
  <defs
     id="defs20" />
  <sodipodi:namedview
     pagecolor="#ffffff"
     bordercolor="#666666"
     borderopacity="1"
     objecttolerance="10"
     gridtolerance="10"
     guidetolerance="10"
     inkscape:pageopacity="0"
     inkscape:pageshadow="2"
     inkscape:window-width="640"
     inkscape:window-height="480"
     id="namedview18"
     showgrid="false"
     inkscape:zoom="4.9166667"
     inkscape:cx="23.682334"
     inkscape:cy="24"
     inkscape:window-x="10"
     inkscape:window-y="34"
     inkscape:window-maximized="0"
     inkscape:current-layer="svg2" />
  <path
     d="m8 1c-1.0286 0-2 0.9714-2 2v42c0 0.97143 1.0286 2 2 2h32c0.97143 0 2-1.0286 2-2v-31l-13-13z"
     fill="#dcdcdc"
     id="path4" />
  <path
     d="m29 12 0.062 0.062 0.157-0.062h-0.219zm2 2 11 11v-11h-11z"
     fill-opacity=".196"
     id="path6" />
  <path
     fill="#fff"
     d="m29 1 13 13h-11c-0.97143 0-2-1.0286-2-2v-11z"
     fill-opacity=".392"
     id="path8" />
  <g
     transform="translate(-.5)"
     fill="#888"
     id="g10">
    <path
       d="m18.5 20v4h-2v2h2v2h-2v2h2v4h2v-4h2v4h2v-4h2v-2h-2v-2h2v-2h-2v-4h-2v4h-2v-4h-2zm2 6h2v2h-2v-2z"
       id="path12" />
    <path
       d="m30.5 32v2h2v-2z"
       id="path14" />
    <path
       d="m30.5 30h2v-10h-2z"
       id="path16" />
  </g>
</svg>
